<?xml version="1.0" standalone="no"?>
<!DOCTYPE svg PUBLIC "-//W3C//DTD SVG 20010904//EN"
 "http://www.w3.org/TR/2001/REC-SVG-20010904/DTD/svg10.dtd">
<svg version="1.0" xmlns="http://www.w3.org/2000/svg"
 width="991.000000pt" height="208.000000pt" viewBox="0 0 991.000000 208.000000"
 preserveAspectRatio="xMidYMid meet">

<g transform="translate(0.000000,208.000000) scale(0.100000,-0.100000)"
fill="#000000" stroke="none">
<path d="M8762 1931 c-177 -67 -218 -285 -79 -410 22 -20 73 -67 112 -106 39
-38 111 -106 160 -150 48 -44 103 -95 122 -114 l34 -35 -73 -69 c-40 -38 -129
-121 -197 -185 -186 -176 -199 -191 -216 -249 -19 -64 -19 -87 1 -152 10 -37
28 -64 57 -92 23 -21 47 -39 54 -39 6 0 19 -7 28 -17 13 -13 36 -16 103 -17
79 0 91 3 132 28 25 16 52 36 61 45 9 9 55 52 103 96 48 44 112 104 142 133
29 28 58 52 64 52 5 0 10 6 10 14 0 8 4 16 9 18 22 8 295 267 326 309 6 8 17
39 24 70 11 46 11 66 1 110 -7 29 -18 60 -24 68 -32 43 -314 311 -327 311 -5
0 -9 6 -9 14 0 8 -4 16 -9 18 -12 4 -170 147 -255 230 -37 38 -70 68 -73 68
-3 0 -19 10 -36 23 -69 49 -163 60 -245 28z m169 -202 c24 -22 82 -75 128
-117 47 -42 108 -99 137 -127 72 -68 248 -233 305 -287 53 -49 65 -77 48 -110
-12 -24 -149 -157 -161 -158 -5 0 -8 -7 -8 -15 0 -8 -3 -15 -7 -15 -5 0 -33
-24 -64 -53 -31 -29 -96 -88 -144 -131 -48 -44 -112 -104 -143 -134 -94 -88
-107 -99 -129 -106 -36 -11 -70 3 -84 35 -15 37 -2 70 42 108 17 14 52 46 78
71 26 25 92 86 147 137 250 231 268 250 268 289 0 32 -8 43 -79 107 -44 40
-112 104 -152 142 -39 39 -111 106 -160 150 -157 143 -170 158 -163 204 3 22
42 50 71 51 16 0 41 -15 70 -41z"/>
<path d="M936 1933 c-30 -5 -99 -44 -127 -72 -9 -9 -55 -52 -103 -96 -48 -44
-112 -104 -142 -132 -29 -29 -58 -53 -64 -53 -5 0 -10 -6 -10 -14 0 -8 -4 -16
-9 -18 -22 -8 -295 -267 -326 -309 -6 -8 -17 -39 -24 -70 -11 -46 -11 -66 -1
-110 7 -29 18 -60 24 -68 32 -43 314 -311 327 -311 5 0 9 -6 9 -14 0 -8 4 -16
9 -18 12 -4 170 -147 255 -230 37 -38 70 -68 73 -68 3 0 19 -10 36 -22 69 -49
151 -60 236 -32 182 59 230 285 88 413 -22 20 -73 68 -112 106 -39 39 -111
106 -160 150 -48 44 -103 95 -122 114 l-34 35 73 69 c40 38 129 121 197 185
186 176 199 191 216 249 19 64 19 87 -1 152 -10 37 -28 64 -57 92 -23 21 -47
39 -54 39 -6 0 -18 6 -26 14 -15 15 -123 27 -171 19z m91 -179 c12 -3 27 -19
34 -35 15 -37 2 -70 -42 -108 -17 -14 -52 -46 -78 -71 -26 -25 -92 -86 -147
-137 -250 -231 -268 -250 -268 -289 0 -32 8 -43 79 -107 44 -40 112 -104 152
-142 39 -39 111 -106 160 -150 157 -143 170 -158 163 -204 -3 -22 -42 -50 -71
-51 -16 0 -41 15 -70 41 -24 22 -82 75 -128 117 -47 42 -108 100 -137 127 -72
68 -248 233 -305 287 -53 49 -65 77 -48 110 12 24 149 157 162 158 4 0 7 7 7
15 0 8 3 15 8 15 4 0 32 24 63 53 31 29 96 88 144 131 48 44 112 104 143 134
124 117 128 119 179 106z"/>
<path d="M5521 1417 c-8 -11 -11 -96 -9 -303 l3 -289 55 0 55 0 3 123 3 122
99 0 c98 0 100 0 106 25 3 14 3 36 0 50 -6 25 -8 25 -106 25 l-100 0 0 80 0
79 108 3 107 3 0 45 0 45 -156 3 c-124 2 -159 0 -168 -11z"/>
<path d="M6086 1398 c-50 -120 -195 -563 -188 -570 5 -5 31 -8 58 -6 l49 3 24
68 24 68 115 -3 115 -3 22 -65 22 -65 61 -3 c54 -3 62 -1 62 15 0 21 -189 562
-203 581 -6 7 -35 12 -79 12 -68 0 -69 0 -82 -32z m160 -346 c-2 -1 -40 -2
-84 0 l-80 3 42 133 41 133 42 -133 c23 -73 41 -134 39 -136z"/>
<path d="M6541 1416 c-8 -9 -11 -97 -9 -302 l3 -289 50 0 50 0 3 238 2 238
110 -220 c60 -121 118 -229 130 -241 24 -24 120 -29 139 -6 8 9 11 97 9 302
l-3 289 -50 0 -50 0 -3 -210 -2 -210 -105 200 c-58 110 -112 206 -122 213 -23
17 -137 16 -152 -2z"/>
<path d="M7104 1416 c-3 -8 -4 -29 -2 -48 l3 -33 82 -3 83 -3 2 -252 3 -252
55 0 55 0 3 252 2 252 83 3 82 3 0 45 0 45 -223 3 c-185 2 -223 0 -228 -12z"/>
<path d="M7645 1418 c-3 -7 -4 -144 -3 -303 l3 -290 55 0 55 0 0 300 0 300
-53 3 c-36 2 -54 -1 -57 -10z"/>
<path d="M7911 1416 c-8 -9 -11 -97 -9 -302 l3 -289 50 0 50 0 3 238 2 238
110 -220 c60 -121 118 -229 130 -241 24 -24 120 -29 139 -6 8 9 11 97 9 302
l-3 289 -50 0 -50 0 -3 -210 -2 -210 -105 200 c-58 110 -112 206 -122 213 -23
17 -137 16 -152 -2z"/>
</g>
</svg>
